<?xml version="1.0" encoding="UTF-8"?>
<svg version="1.1" xmlns="http://www.w3.org/2000/svg" width="1024" height="1024">
<path d="M0 0 C337.92 0 675.84 0 1024 0 C1024 337.92 1024 675.84 1024 1024 C686.08 1024 348.16 1024 0 1024 C0 686.08 0 348.16 0 0 Z " fill="#212F3C" transform="translate(0,0)"/>
<path d="M0 0 C2.53428001 0.99245908 3.28673127 2.25157418 4.69897461 4.55126953 C5.13854492 5.23833984 5.57811523 5.92541016 6.03100586 6.63330078 C6.88647461 8.73876953 6.88647461 8.73876953 6.88256836 10.68017578 C5.35911353 13.82864909 2.80724969 15.71194931 0.13647461 17.86376953 C-0.43828613 18.33733887 -1.01304687 18.8109082 -1.60522461 19.29882812 C-3.43047623 20.79284691 -5.26903036 22.26858995 -7.11352539 23.73876953 C-7.72035156 24.22345703 -8.32717773 24.70814453 -8.95239258 25.20751953 C-10.70764883 26.60187312 -12.47033052 27.9858701 -14.23852539 29.36376953 C-14.7821875 29.78932129 -15.32584961 30.21487305 -15.88598633 30.65332031 C-18.30141529 32.50565716 -20.19892707 33.76723676 -23.11352539 34.73876953 C-19.19704937 38.81341093 -15.01543639 42.38685582 -10.61352539 45.92626953 C-9.91300049 46.49289307 -9.21247559 47.0595166 -8.49072266 47.64331055 C-4.59718015 50.78064548 -0.67560673 53.87660156 3.29785156 56.91210938 C4.90421267 58.14199816 6.49713358 59.38937917 8.08959961 60.63720703 C10.74283529 62.72117444 10.74283529 62.72117444 13.24584961 64.09033203 C15.5424819 65.51424405 16.5868688 66.35018369 17.88647461 68.73876953 C19.05729297 75.24404681 19.73606668 82.26944799 16.53491211 88.27392578 C14.46846844 90.41511316 12.32859239 92.0370223 9.88647461 93.73876953 C8.38429899 94.9189075 6.88227063 96.0992401 5.38330078 97.28344727 C3.73966491 98.56831872 2.07851871 99.82637794 0.40991211 101.07861328 C-3.30610493 103.87137679 -6.96277237 106.73646472 -10.61352539 109.61376953 C-11.1886084 110.06598877 -11.76369141 110.51820801 -12.35620117 110.98413086 C-15.6209972 113.55370836 -18.87278952 116.13892546 -22.11352539 118.73876953 C-20.78335856 122.72927003 -18.16298077 124.29313706 -14.92602539 126.73876953 C-14.00055908 127.45528687 -14.00055908 127.45528687 -13.05639648 128.1862793 C-9.75050579 130.74364278 -6.41681436 133.26190632 -3.07055664 135.76611328 C-2.42820068 136.25402344 -1.78584473 136.74193359 -1.12402344 137.24462891 C0.11491442 138.18534256 1.36200527 139.11543177 2.61767578 140.03369141 C4.31616211 141.32861328 4.31616211 141.32861328 6.88647461 143.73876953 C6.88647461 148.1208392 6.31875486 149.04303917 3.88647461 152.48876953 C3.05116211 153.68759766 3.05116211 153.68759766 2.19897461 154.91064453 C1.76584961 155.51392578 1.33272461 156.11720703 0.88647461 156.73876953 C-3.6434808 155.84849637 -6.51386285 153.24965742 -9.98852539 150.36376953 C-11.33701292 149.26423355 -12.68598218 148.16528813 -14.03540039 147.06689453 C-15.05730469 146.23061523 -15.05730469 146.23061523 -16.09985352 145.37744141 C-19.11856523 142.92089521 -22.17623383 140.51559228 -25.23852539 138.11376953 C-26.08640625 137.44172485 -26.08640625 137.44172485 -26.95141602 136.75610352 C-29.87978703 134.44394543 -32.83847443 132.20238453 -35.87915039 130.03955078 C-36.48484863 129.6001416 -37.09054687 129.16073242 -37.71459961 128.70800781 C-38.86595804 127.87610143 -40.02864794 127.0595766 -41.20385742 126.26171875 C-43.9381844 124.26774229 -45.03012523 123.08460824 -45.83227539 119.75830078 C-44.84855467 115.6256045 -42.55936056 114.07185764 -39.23852539 111.73876953 C-37.95423896 110.78492418 -36.67040745 109.8304661 -35.38696289 108.87548828 C-34.35200684 108.12017822 -34.35200684 108.12017822 -33.29614258 107.34960938 C-29.42619333 104.49346563 -25.6521566 101.51388872 -21.86352539 98.55126953 C-20.33242805 97.36096897 -18.80118234 96.17085924 -17.26977539 94.98095703 C-11.30220422 90.33324057 -5.3506482 85.66996318 0.38647461 80.73876953 C2.88647461 78.73876953 2.88647461 78.73876953 4.88647461 78.73876953 C1.01912069 74.72352444 -3.08868016 71.17414569 -7.42602539 67.67626953 C-8.12171631 67.11262695 -8.81740723 66.54898438 -9.53417969 65.96826172 C-15.0699668 61.51276471 -20.72538257 57.23440775 -26.43164062 53.00073242 C-39.78031429 43.07198064 -39.78031429 43.07198064 -45.11352539 37.73876953 C-44.91403813 34.92327893 -44.54388812 33.25496303 -42.72290039 31.07080078 C-41.80250977 30.31863281 -41.80250977 30.31863281 -40.86352539 29.55126953 C-40.13907227 28.95443359 -39.41461914 28.35759766 -38.66821289 27.74267578 C-34.67570898 24.61094107 -30.66707344 21.50298766 -26.62915039 18.43017578 C-22.39300121 15.2006481 -18.21661815 11.89587053 -14.04663086 8.58154297 C-12.41127357 7.28860531 -10.76312621 6.01346107 -9.11352539 4.73876953 C-8.50992188 4.25359863 -7.90631836 3.76842773 -7.28442383 3.26855469 C-2.62930334 -0.32498031 -2.62930334 -0.32498031 0 0 Z " fill="#B6D0E5" transform="translate(448.113525390625,373.26123046875)"/>
<path d="M0 0 C3.1026833 0.60145371 5.05606664 1.5546454 7.546875 3.484375 C8.21920166 4.0012085 8.89152832 4.51804199 9.58422852 5.05053711 C10.29893311 5.61135986 11.0136377 6.17218262 11.75 6.75 C12.49499756 7.32693604 13.23999512 7.90387207 14.00756836 8.49829102 C19.89823829 13.08157862 25.70930221 17.76300167 31.46972656 22.50878906 C35.88454399 26.1391651 40.4023201 29.60433778 45 33 C44.80691642 37.27914953 44.61296599 39.37823546 41.55078125 42.484375 C39.94783203 43.60585938 39.94783203 43.60585938 38.3125 44.75 C37.11889921 45.60943898 35.92622133 46.47016088 34.734375 47.33203125 C34.11626953 47.7698291 33.49816406 48.20762695 32.86132812 48.65869141 C29.85482255 50.82523674 26.96329266 53.1324461 24.0625 55.4375 C22.89752016 56.35595697 21.73215252 57.27392226 20.56640625 58.19140625 C19.98391113 58.65047363 19.40141602 59.10954102 18.80126953 59.58251953 C16.94135204 61.04615208 15.07850054 62.50597609 13.21484375 63.96484375 C12.59279053 64.45218994 11.9707373 64.93953613 11.32983398 65.44165039 C10.1514818 66.36467983 8.97264579 67.28709212 7.79321289 68.20874023 C4.13849491 71.07419175 0.55544508 74.01214104 -3 77 C-1.60553746 80.29406201 -0.11878956 81.95404753 2.75 84.0625 C3.56082031 84.6709375 4.37164063 85.279375 5.20703125 85.90625 C6.12871094 86.5971875 7.05039062 87.288125 8 88 C10.14982661 89.68271054 12.29544726 91.36997621 14.4375 93.0625 C20.89395959 98.14537858 27.37902384 103.1911579 33.87084961 108.22875977 C35.29303874 109.33307943 36.71030197 110.44378435 38.12158203 111.56201172 C40.15281851 113.15922524 40.15281851 113.15922524 43.08984375 114.97265625 C45 117 45 117 45.1640625 120.45703125 C43.71476096 124.86816043 42.15725749 126.05096285 38.375 128.6875 C37.18216794 129.54489484 35.99081945 130.40435656 34.80078125 131.265625 C34.1763916 131.70970703 33.55200195 132.15378906 32.90869141 132.61132812 C29.70458831 134.94247911 26.64049518 137.44364402 23.5625 139.9375 C16.41925032 145.68175836 9.21802772 151.35014163 2 157 C-1.05297101 155.67290554 -2.84224531 154.37204642 -4.8125 151.6875 C-5.25207031 151.11386719 -5.69164062 150.54023437 -6.14453125 149.94921875 C-7.37535682 147.14473491 -7.1020895 145.84887958 -6 143 C-3.5859375 140.74609375 -3.5859375 140.74609375 -0.375 138.4375 C0.79949597 137.57601396 1.97261381 136.71264671 3.14453125 135.84765625 C3.76666504 135.39277832 4.38879883 134.93790039 5.02978516 134.46923828 C8.52806962 131.86048042 11.91535338 129.11333322 15.3125 126.375 C16.6002554 125.34113959 17.88801538 124.30728488 19.17578125 123.2734375 C20.10777344 122.52320313 21.03976562 121.77296875 22 121 C20.45690575 116.90057491 17.84740354 115.11725843 14.375 112.5625 C13.20028392 111.68434665 12.02718265 110.80403015 10.85546875 109.921875 C10.2320459 109.45330078 9.60862305 108.98472656 8.96630859 108.50195312 C4.77468453 105.30020601 0.6803002 101.97308807 -3.37158203 98.59667969 C-6.11885971 96.30806739 -8.75811715 94.15155737 -11.79296875 92.25 C-14.84426539 90.26260679 -16.5528048 88.73035327 -17.48583984 85.12011719 C-18.60467386 78.48988023 -18.82881566 71.85325597 -15.1171875 66.0625 C-12.80421276 63.91221156 -10.4476822 62.0419415 -7.83642578 60.26757812 C-5.79022062 58.85520147 -3.8335488 57.35462983 -1.87109375 55.828125 C1.02752899 53.57508978 3.93954603 51.34284994 6.87109375 49.1328125 C10.47554806 46.40722975 14.03813244 43.64108919 17.5625 40.8125 C18.43003906 40.11769531 19.29757812 39.42289062 20.19140625 38.70703125 C20.78824219 38.14371094 21.38507812 37.58039063 22 37 C22 36.34 22 35.68 22 35 C19.99491419 33.27221329 17.98054741 31.66014606 15.875 30.0625 C14.94167847 29.33921509 14.94167847 29.33921509 13.98950195 28.60131836 C10.67366581 26.03324007 7.33467472 23.49680786 3.98828125 20.96875 C3.35100098 20.48140381 2.7137207 19.99405762 2.05712891 19.49194336 C0.83051749 18.55412542 -0.40272699 17.62490706 -1.64306641 16.70532227 C-3.89051538 14.98188821 -5.73359001 13.48841831 -7.1015625 10.98046875 C-6.94698585 7.96622417 -5.47279139 6.52894411 -3.5625 4.25 C-2.57443359 3.05117188 -2.57443359 3.05117188 -1.56640625 1.828125 C-1.04949219 1.22484375 -0.53257812 0.6215625 0 0 Z " fill="#B6D0E5" transform="translate(575,373)"/>
<path d="M0 0 C3 0.375 3 0.375 4.6622467 1.47377014 C6.67380616 4.33262081 6.38897335 6.70171462 6.40405273 10.16967773 C6.41091599 10.85619415 6.41777924 11.54271057 6.42485046 12.25003052 C6.44315411 14.51976191 6.43927606 16.78880438 6.43359375 19.05859375 C6.43815406 20.63656337 6.44345919 22.214531 6.44947815 23.79249573 C6.45841636 27.10043402 6.45597842 30.40813098 6.44604492 33.71606445 C6.43455751 37.95441047 6.45475879 42.19192307 6.48396206 46.43015957 C6.50231288 49.68928822 6.50203384 52.94821676 6.49632454 56.20738411 C6.49617117 57.76988964 6.50222865 59.3324086 6.51461601 60.89486504 C6.52950313 63.08075004 6.51886804 65.2650909 6.50170898 67.45092773 C6.50154282 68.69430405 6.50137665 69.93768036 6.50120544 71.21873474 C5.90899643 74.94808118 4.97029147 76.12007388 2 78.375 C-0.3046875 78.9609375 -0.3046875 78.9609375 -3 78.375 C-5.56664176 76.80725116 -7.82762674 74.93463012 -10.125 73 C-11.35620041 71.99149072 -12.58795148 70.98365323 -13.8203125 69.9765625 C-14.62879639 69.30101318 -14.62879639 69.30101318 -15.45361328 68.61181641 C-16.90640169 67.44986091 -18.45213267 66.40691156 -20 65.375 C-20.17523193 65.91882324 -20.35046387 66.46264648 -20.53100586 67.02294922 C-24.97038804 80.59523116 -30.65846261 93.74523414 -36.25 106.875 C-36.66193604 107.86000488 -37.07387207 108.84500977 -37.49829102 109.85986328 C-38.09468384 111.24407471 -38.09468384 111.24407471 -38.703125 112.65625 C-39.05020508 113.47158203 -39.39728516 114.28691406 -39.75488281 115.12695312 C-41.19053967 117.71901751 -42.73793583 119.46675991 -45 121.375 C-47.799825 121.30671159 -49.35018387 120.83674351 -51.62808228 119.21812439 C-53.65845069 116.49039409 -53.38131254 114.32008202 -53.38818359 110.94750977 C-53.39344055 110.30000763 -53.39869751 109.65250549 -53.40411377 108.98538208 C-53.41731475 106.84547786 -53.40857506 104.70631801 -53.3984375 102.56640625 C-53.40045847 101.07811846 -53.40337011 99.58983164 -53.40713501 98.10154724 C-53.41155867 94.98190892 -53.40512712 91.86252829 -53.39111328 88.74291992 C-53.37403591 84.74681572 -53.38385264 80.75131663 -53.40183067 76.75523472 C-53.41268023 73.68140621 -53.4092166 70.60772072 -53.4014473 67.53388786 C-53.39944774 66.06070827 -53.40189599 64.58751564 -53.40888596 63.11435127 C-53.41651842 61.05318029 -53.40487213 58.99298335 -53.38818359 56.93188477 C-53.38579681 55.75956802 -53.38341003 54.58725128 -53.38095093 53.37940979 C-52.96335855 50.08602333 -52.34392339 48.69209087 -50 46.375 C-46.90219107 45.70040551 -44.9727198 45.80797682 -42.20410156 47.421875 C-40.27552567 48.83704508 -38.44781068 50.32618174 -36.625 51.875 C-35.98433594 52.39964844 -35.34367187 52.92429687 -34.68359375 53.46484375 C-33.11164828 54.75524675 -31.55431474 56.06341387 -30 57.375 C-27.47470679 54.84970679 -26.64303106 52.44330176 -25.27734375 49.13671875 C-25.01577988 48.507621 -24.754216 47.87852325 -24.48472595 47.23036194 C-23.92313915 45.87829086 -23.36375044 44.52530511 -22.80633545 43.17150879 C-21.93531863 41.05720494 -21.05781335 38.94571098 -20.17822266 36.83496094 C-19.00254566 34.01297103 -17.82855863 31.19029286 -16.65673828 28.36669922 C-14.40770569 22.94787612 -12.15459157 17.53105555 -9.875 12.125 C-9.52171631 11.26994873 -9.16843262 10.41489746 -8.80444336 9.53393555 C-8.30956421 8.36471558 -8.30956421 8.36471558 -7.8046875 7.171875 C-7.52608887 6.50510742 -7.24749023 5.83833984 -6.96044922 5.15136719 C-5.13703476 1.7789311 -3.85393893 0.48174237 0 0 Z " fill="#2B6FE8" transform="translate(535,408.625)"/>
<path d="M0 0 C15 0 15 0 18.265625 3.015625 C19.31689453 5.03149414 19.31689453 5.03149414 20.25 7.25 C21.02325013 8.79566666 21.79669634 10.34123525 22.5703125 11.88671875 C22.95606445 12.71091309 23.34181641 13.53510742 23.73925781 14.38427734 C25.99121618 19.05652404 28.59076235 23.53928456 31.125 28.0625 C32.75705625 31.03783914 34.37967906 34.01825622 36 37 C36.66 37 37.32 37 38 37 C38.42821045 36.19892822 38.8564209 35.39785645 39.29760742 34.57250977 C40.90917055 31.55852763 42.52138969 28.54489825 44.1340332 25.53149414 C44.82764975 24.23508222 45.52101568 22.93853618 46.21411133 21.6418457 C50.08714143 14.39634318 53.98345876 7.16738136 58 0 C63.28 0 68.56 0 74 0 C74 22.77 74 45.54 74 69 C69.71 69 65.42 69 61 69 C60.67 53.49 60.34 37.98 60 22 C51.74188959 37.69013747 51.74188959 37.69013747 43.49609375 53.38671875 C41 56 41 56 38.71923828 56.38525391 C36.44342024 56.39371089 34.25770286 56.27639756 32 56 C31.63237549 55.31486328 31.26475098 54.62972656 30.88598633 53.92382812 C29.19761504 50.78104368 27.50509087 47.6405138 25.8125 44.5 C25.23435547 43.42234375 24.65621094 42.3446875 24.06054688 41.234375 C23.49013672 40.17734375 22.91972656 39.1203125 22.33203125 38.03125 C21.81358643 37.06767578 21.2951416 36.10410156 20.76098633 35.11132812 C18.62543577 31.33821619 16.29783422 27.67653475 14 24 C13.67 38.52 13.34 53.04 13 68 C8.71 68 4.42 68 0 68 C0 45.56 0 23.12 0 0 Z " fill="#3A5B79" transform="translate(547,593)"/>
<path d="M0 0 C2.36924716 1.1947775 4.63055779 2.44095966 6.859375 3.87890625 C7.189375 2.22890625 7.519375 0.57890625 7.859375 -1.12109375 C11.819375 -1.12109375 15.779375 -1.12109375 19.859375 -1.12109375 C19.95877599 5.674111 20.03109533 12.46888587 20.07910156 19.26464844 C20.09912917 21.57299174 20.12635939 23.88128487 20.16113281 26.18945312 C20.21004094 29.52095982 20.23243311 32.85179163 20.25 36.18359375 C20.27064514 37.20379608 20.29129028 38.22399841 20.31256104 39.27511597 C20.31496268 47.06741019 18.88188724 54.04623609 13.96484375 60.28125 C13.01544922 61.04115234 13.01544922 61.04115234 12.046875 61.81640625 C11.10908203 62.60337891 11.10908203 62.60337891 10.15234375 63.40625 C4.58018956 66.98495891 -0.44051961 68.39012862 -7.015625 68.25390625 C-7.71671387 68.24520508 -8.41780273 68.23650391 -9.14013672 68.22753906 C-17.48567193 67.99190951 -23.51198768 65.80789298 -30.140625 60.87890625 C-28.820625 58.23890625 -27.500625 55.59890625 -26.140625 52.87890625 C-23.05070894 53.34707535 -20.7853754 54.05304821 -17.953125 55.44140625 C-12.30912073 57.93755629 -5.94007349 57.83635789 -0.203125 55.62890625 C3.62945546 53.47353046 3.62945546 53.47353046 5.859375 49.87890625 C6.38224245 46.88665489 6.6715905 43.90935959 6.859375 40.87890625 C5.993125 41.66265625 5.126875 42.44640625 4.234375 43.25390625 C-1.18370275 47.6914502 -6.53843661 48.35616143 -13.40234375 48.1796875 C-21.18680669 47.3246181 -25.486685 42.91080964 -30.4765625 37.1953125 C-34.98537208 30.9189649 -34.96732079 24.36267863 -34.140625 16.87890625 C-31.9373961 9.37768043 -27.79967378 4.79755126 -21.140625 0.87890625 C-20.53605469 0.50636719 -19.93148438 0.13382813 -19.30859375 -0.25 C-13.45554512 -2.60176549 -5.84054207 -2.08487012 0 0 Z " fill="#B3CEE3" transform="translate(454.140625,611.12109375)"/>
<path d="M0 0 C4.62 0 9.24 0 14 0 C17.42247975 3.92521689 19.20912989 6.5707017 21.375 11.125 C21.91253906 12.15238281 22.45007813 13.17976562 23.00390625 14.23828125 C24.10666603 16.34688369 25.18953695 18.46599942 26.25292969 20.59472656 C29.29028692 26.51494158 32.65676591 32.24860437 36 38 C36.45850342 37.13310547 36.91700684 36.26621094 37.3894043 35.37304688 C39.11036922 32.12112937 40.83526264 28.87130892 42.5612793 25.62207031 C43.30419511 24.22223847 44.04608017 22.82185903 44.78686523 21.42089844 C45.14530518 20.74317383 45.50374512 20.06544922 45.87304688 19.3671875 C46.22698517 18.69792236 46.58092346 18.02865723 46.94558716 17.33911133 C47.99557364 15.37396703 49.069328 13.42327761 50.14599609 11.47265625 C51.98812719 8.17225488 51.98812719 8.17225488 53.10791016 5.24609375 C54.08203125 3.03125 54.08203125 3.03125 57 0 C61.95 0 66.9 0 72 0 C72 22.44 72 44.88 72 68 C67.71 68 63.42 68 59 68 C58.67 53.48 58.34 38.96 58 24 C55.03 29.28 52.06 34.56 49 40 C41.14545455 53.85454545 41.14545455 53.85454545 40 55 C38.48071962 55.07179964 36.95832518 55.08392007 35.4375 55.0625 C34.61121094 55.05347656 33.78492188 55.04445313 32.93359375 55.03515625 C32.29550781 55.02355469 31.65742188 55.01195312 31 55 C30.5968457 54.2793335 30.19369141 53.55866699 29.77832031 52.81616211 C28.26522633 50.11175647 26.75184684 47.40751086 25.23828125 44.70336914 C24.26801257 42.96968501 23.29806573 41.23582076 22.328125 39.50195312 C21.709375 38.39658203 21.090625 37.29121094 20.453125 36.15234375 C19.88754883 35.14163818 19.32197266 34.13093262 18.73925781 33.08959961 C16.84119415 29.71789893 14.91968018 26.35944031 13 23 C12.67 37.85 12.34 52.7 12 68 C8.04 68 4.08 68 0 68 C0 45.56 0 23.12 0 0 Z " fill="#B6D0E5" transform="translate(238,593)"/>
<path d="M0 0 C4.29 0 8.58 0 13 0 C13 23.1 13 46.2 13 70 C9.04 70 5.08 70 1 70 C0.67 68.35 0.34 66.7 0 65 C-0.721875 65.61875 -1.44375 66.2375 -2.1875 66.875 C-8.64236331 71.75200783 -15.14877113 71.76898372 -23 71 C-30.91444618 68.66479658 -35.83045505 62.90131578 -40 56 C-43.08419924 49.46549154 -43.21280807 42.0784197 -41.16015625 35.17578125 C-38.06616313 28.37316337 -33.3972137 23.92821135 -27.24609375 19.83203125 C-23.91435945 18.59784098 -20.62995141 18.67142224 -17.125 18.6875 C-16.43019531 18.67138672 -15.73539063 18.65527344 -15.01953125 18.63867188 C-10.25579384 18.63418625 -7.04887762 19.51628552 -3 22 C-2.34 22.66 -1.68 23.32 -1 24 C-0.67 16.08 -0.34 8.16 0 0 Z " fill="#395977" transform="translate(764,591)"/>
<path d="M0 0 C6.70167373 3.70622866 10.99571661 8.96370008 14.265625 15.80078125 C14.890625 18.92578125 14.890625 18.92578125 14.890625 28.92578125 C1.360625 28.92578125 -12.169375 28.92578125 -26.109375 28.92578125 C-22.14177224 36.24968168 -22.14177224 36.24968168 -16.109375 39.92578125 C-11.56289431 40.60499976 -6.39750948 41.0329431 -2.171875 38.98828125 C-0.81520424 37.97077818 0.53792363 36.94855545 1.890625 35.92578125 C5.32897786 36.08951234 7.90297212 37.26597409 10.890625 38.92578125 C10.32260494 42.33390163 9.331429 43.83441894 6.703125 46.05078125 C6.13207031 46.54835938 5.56101562 47.0459375 4.97265625 47.55859375 C-0.00147067 50.82490598 -5.16269774 51.31455548 -10.984375 51.30078125 C-11.69182861 51.29916992 -12.39928223 51.29755859 -13.12817383 51.29589844 C-18.7110389 51.16461262 -22.63813477 50.22516971 -27.109375 46.92578125 C-28.016875 46.30703125 -28.924375 45.68828125 -29.859375 45.05078125 C-34.46017676 40.70557959 -37.78531403 35.42373348 -38.375 29.05859375 C-38.32011096 18.49245321 -36.57321572 11.6494849 -29.109375 3.92578125 C-21.51469877 -2.93649434 -9.36489776 -3.23536041 0 0 Z " fill="#B5CFE4" transform="translate(359.109375,611.07421875)"/>
<path d="M0 0 C5.96278194 3.28134799 9.8788322 7.8918729 12.875 13.97265625 C13.875 17.97265625 13.875 17.97265625 13.875 28.97265625 C0.675 28.97265625 -12.525 28.97265625 -26.125 28.97265625 C-22.21683063 36.35763222 -22.21683063 36.35763222 -16.125 39.97265625 C-9.86126355 40.82877248 -5.23692887 40.10675962 0.18359375 36.84765625 C1.875 35.97265625 1.875 35.97265625 4.875 35.97265625 C6.9110882 37.25020179 8.91609119 38.57965443 10.875 39.97265625 C8.21905908 45.78252702 3.37154112 48.22438569 -2.125 50.97265625 C-20.33411512 52.45873073 -20.33411512 52.45873073 -28.2109375 46.6796875 C-33.88379702 41.62042299 -37.62934118 36.44447919 -38.48046875 28.765625 C-38.80255704 20.73082784 -37.97956069 14.51931141 -33.125 7.97265625 C-24.39974815 -1.47383618 -12.25440332 -4.02863509 0 0 Z " fill="#B5CFE4" transform="translate(522.125,611.02734375)"/>
<path d="M0 0 C3.96 0 7.92 0 12 0 C12.33 1.98 12.66 3.96 13 6 C13.7425 5.38125 14.485 4.7625 15.25 4.125 C19.94692694 0.49555646 22.8702162 -0.29312973 28.875 -0.3125 C30.06867187 -0.32925781 31.26234375 -0.34601562 32.4921875 -0.36328125 C38.35086193 0.24346343 42.06912296 2.53836777 45.8125 7 C46.68841797 8.0209375 46.68841797 8.0209375 47.58203125 9.0625 C50.59763834 13.18299894 50.12933844 17.51375003 50.09765625 22.38671875 C50.0962413 23.20372757 50.09482635 24.02073639 50.09336853 24.86250305 C50.08777294 27.47087268 50.07522129 30.07915634 50.0625 32.6875 C50.05748443 34.45637897 50.05292162 36.22525928 50.04882812 37.99414062 C50.03780496 42.32946019 50.02054338 46.66471552 50 51 C46.04 51 42.08 51 38 51 C37.9906543 50.02651611 37.98130859 49.05303223 37.97167969 48.05004883 C37.93168908 44.4247528 37.86590675 40.80029737 37.79248047 37.17553711 C37.76432306 35.60924103 37.74308247 34.04280425 37.72900391 32.47631836 C37.70750033 30.21915934 37.66081811 27.96368261 37.609375 25.70703125 C37.60814636 25.01100296 37.60691772 24.31497467 37.60565186 23.59785461 C37.46268489 18.81039611 36.35041519 16.39101434 33 13 C29.51335549 10.47518846 26.20248882 10.56525978 22 11 C17.54693632 13.31216768 15.17367626 15.5094525 13 20 C12.49863976 23.4777572 12.49863976 23.4777572 12.48828125 27.26953125 C12.47033005 27.95053391 12.45237885 28.63153656 12.43388367 29.33317566 C12.38001369 31.4928888 12.34596218 33.65238399 12.3125 35.8125 C12.27930609 37.28323331 12.24481451 38.75393793 12.20898438 40.22460938 C12.12430284 43.81619687 12.05738039 47.40786076 12 51 C8.04 51 4.08 51 0 51 C0 34.17 0 17.34 0 0 Z " fill="#3A5A78" transform="translate(662,610)"/>
<path d="M0 0 C0.33 0 0.66 0 1 0 C1.09267747 9.18809939 1.16375324 18.37603791 1.20724869 27.56450272 C1.22812433 31.83109292 1.25644109 36.09736336 1.30175781 40.36376953 C1.3452171 44.48106784 1.36913728 48.59805857 1.37950897 52.71556854 C1.38690027 54.2864847 1.40133388 55.85738402 1.42292023 57.42816925 C1.45195682 59.62858969 1.45595612 61.82773913 1.45410156 64.02832031 C1.46298401 65.28074524 1.47186646 66.53317017 1.48101807 67.82354736 C0.91261674 71.57704442 -0.01077873 72.73844365 -3 75 C-5.3046875 75.58203125 -5.3046875 75.58203125 -8 75 C-10.56849752 73.4560325 -12.82761161 71.60521473 -15.125 69.6875 C-15.74503906 69.18798828 -16.36507812 68.68847656 -17.00390625 68.17382812 C-18.69106627 66.80414446 -20.3631007 65.42937955 -22 64 C-22.58120605 63.55245361 -23.16241211 63.10490723 -23.76123047 62.64379883 C-25 61 -25 61 -24.84008789 58.69555664 C-23.89747129 55.67102021 -22.78745767 52.79194566 -21.55859375 49.87109375 C-21.06085449 48.67967773 -20.56311523 47.48826172 -20.05029297 46.26074219 C-19.51282105 44.98627509 -18.97522097 43.71186204 -18.4375 42.4375 C-17.34280988 39.82775876 -16.25113562 37.21676312 -15.16015625 34.60546875 C-14.88921143 33.95796661 -14.6182666 33.31046448 -14.33911133 32.64334106 C-11.5872137 26.04850203 -8.96151937 19.40390584 -6.41186523 12.72827148 C-4.21748012 7.10874006 -4.21748012 7.10874006 -2 6 C-1.27306096 4.02111039 -0.60183749 2.02045442 0 0 Z " fill="#37C8AE" transform="translate(540,412)"/>
<path d="M0 0 C0 3.96 0 7.92 0 12 C-2.8153125 12.0928125 -2.8153125 12.0928125 -5.6875 12.1875 C-9.90935481 12.54056442 -11.62408109 12.72933838 -15.125 15.25 C-18.38159357 20.02633723 -19.25622932 23.85237003 -19.4140625 29.61328125 C-19.47207031 31.4840332 -19.47207031 31.4840332 -19.53125 33.39257812 C-19.5621875 34.68615234 -19.593125 35.97972656 -19.625 37.3125 C-19.68300781 39.28186523 -19.68300781 39.28186523 -19.7421875 41.29101562 C-19.83632859 44.52711551 -19.91924784 47.76353834 -20 51 C-23.96 51 -27.92 51 -32 51 C-32 34.5 -32 18 -32 1 C-28.04 1 -24.08 1 -20 1 C-20 3.31 -20 5.62 -20 8 C-19.34 8 -18.68 8 -18 8 C-17.7215625 7.13375 -17.7215625 7.13375 -17.4375 6.25 C-13.22447924 -0.34429336 -7.06746379 -0.43492085 0 0 Z " fill="#B4CEE3" transform="translate(416,610)"/>
<path d="M0 0 C4.86634517 2.57089934 9.22361005 5.67083015 11 11 C11.53087424 16.05635952 11.58968185 19.88163787 9.1875 24.4375 C3.81552831 30.73038112 3.81552831 30.73038112 -1.48828125 31.23828125 C-7.51093024 31.3965528 -11.36420697 31.28810855 -16 27 C-19.64691108 22.72431115 -20.28262396 17.48119199 -20 12 C-18.42814718 7.08912255 -15.19913612 3.87309313 -11 1 C-7.52895297 -0.73552351 -3.79521193 -0.46720147 0 0 Z " fill="#20313F" transform="translate(754,620)"/>
<path d="M0 0 C4.35170939 2.02015133 7.23188497 4.48882801 9 9 C9.70031352 13.93476739 9.51450496 17.91162413 7.375 22.4375 C3.54086635 26.57432842 0.08196707 28.14667482 -5.5 28.4375 C-10.00511708 28.26335262 -12.57306918 27.02845049 -16 24 C-19.39090366 20.0736905 -20.6746341 17.05027553 -20.3828125 11.953125 C-19.48268353 7.36063024 -16.73407957 4.66416723 -13.375 1.625 C-8.79189093 -0.58168215 -4.9979844 -0.92379806 0 0 Z " fill="#233342" transform="translate(452,620)"/>
<path d="M0 0 C3.96 0 7.92 0 12 0 C12 16.83 12 33.66 12 51 C8.04 51 4.08 51 0 51 C0 34.17 0 17.34 0 0 Z " fill="#395976" transform="translate(636,610)"/>
<path d="M0 0 C2.9375 0.3125 2.9375 0.3125 4.9375 2.3125 C4.5625 5.9375 4.5625 5.9375 3.9375 9.3125 C2.9475 9.6425 1.9575 9.9725 0.9375 10.3125 C0.82881592 10.99320557 0.72013184 11.67391113 0.6081543 12.37524414 C-0.18392632 15.84430925 -1.43890845 19.03110741 -2.79296875 22.30859375 C-3.06587234 22.97858902 -3.33877594 23.64858429 -3.61994934 24.33888245 C-4.49250017 26.47763762 -5.37128623 28.61377069 -6.25 30.75 C-6.82134292 32.15023589 -7.39230969 33.55062532 -7.96289062 34.95117188 C-12.52661503 46.12259339 -12.52661503 46.12259339 -14.79150391 51.25830078 C-15.06658279 51.88503189 -15.34166168 52.511763 -15.62507629 53.15748596 C-16.37453682 54.8564869 -17.13287007 56.55156615 -17.8918457 58.24633789 C-19.05479119 61.29230918 -19.55787246 64.1040024 -20.0625 67.3125 C-21.625 69.6875 -21.625 69.6875 -23.0625 71.3125 C-22.9241788 63.99405106 -22.08149423 58.41173312 -18.51953125 51.99609375 C-13.94961166 43.57911048 -10.68162645 34.42126183 -7.28125 25.484375 C-4.33361429 17.81296411 -1.36880277 10.33017858 2.9375 3.3125 C0.56444422 2.89469121 0.56444422 2.89469121 -2.0625 3.3125 C-4.61613164 6.88230547 -6.06663741 10.70846673 -7.5625 14.8125 C-8.73709007 18.03509326 -9.85396383 20.96632995 -11.625 23.90625 C-13.10246144 26.37939197 -13.83372665 28.53622058 -14.5625 31.3125 C-15.63262618 35.09138307 -16.9591832 37.9822484 -19.0625 41.3125 C-19.86760965 43.27495477 -20.5882793 45.25889922 -21.30859375 47.25390625 C-22.86929721 51.51551623 -24.53434984 55.52027476 -27.0625 59.3125 C-33.05175362 58.72015624 -36.49712375 54.90975139 -40.9296875 51.1484375 C-44.48016799 48.6310472 -44.48016799 48.6310472 -51.0625 50.3125 C-50.7325 72.7525 -50.4025 95.1925 -50.0625 118.3125 C-48.0825 118.3125 -46.1025 118.3125 -44.0625 118.3125 C-43.4025 116.6625 -42.7425 115.0125 -42.0625 113.3125 C-41.4025 113.3125 -40.7425 113.3125 -40.0625 113.3125 C-42.20367647 119.40661765 -42.20367647 119.40661765 -45.0625 121.3125 C-47.78933013 121.17615849 -49.46058145 120.73774419 -51.69448853 119.15953064 C-53.71763088 116.42797027 -53.44381394 114.25689233 -53.45068359 110.88500977 C-53.45594055 110.23750763 -53.46119751 109.59000549 -53.46661377 108.92288208 C-53.47981475 106.78297786 -53.47107506 104.64381801 -53.4609375 102.50390625 C-53.46295847 101.01561846 -53.46587011 99.52733164 -53.46963501 98.03904724 C-53.47405867 94.91940892 -53.46762712 91.80002829 -53.45361328 88.68041992 C-53.43653591 84.68431572 -53.44635264 80.68881663 -53.46433067 76.69273472 C-53.47518023 73.61890621 -53.4717166 70.54522072 -53.4639473 67.47138786 C-53.46194774 65.99820827 -53.46439599 64.52501564 -53.47138596 63.05185127 C-53.47901842 60.99068029 -53.46737213 58.93048335 -53.45068359 56.86938477 C-53.44829681 55.69706802 -53.44591003 54.52475128 -53.44345093 53.31690979 C-53.02585855 50.02352333 -52.40642339 48.62959087 -50.0625 46.3125 C-46.96469107 45.63790551 -45.0352198 45.74547682 -42.26660156 47.359375 C-40.33802567 48.77454508 -38.51031068 50.26368174 -36.6875 51.8125 C-36.04683594 52.33714844 -35.40617187 52.86179687 -34.74609375 53.40234375 C-33.17414828 54.69274675 -31.61681474 56.00091387 -30.0625 57.3125 C-27.53720679 54.78720679 -26.70553106 52.38080176 -25.33984375 49.07421875 C-25.07827988 48.445121 -24.816716 47.81602325 -24.54722595 47.16786194 C-23.98563915 45.81579086 -23.42625044 44.46280511 -22.86883545 43.10900879 C-21.99781863 40.99470494 -21.12031335 38.88321098 -20.24072266 36.77246094 C-19.06504566 33.95047103 -17.89105863 31.12779286 -16.71923828 28.30419922 C-14.47020569 22.88537612 -12.21709157 17.46855555 -9.9375 12.0625 C-9.58421631 11.20744873 -9.23093262 10.35239746 -8.86694336 9.47143555 C-8.37206421 8.30221558 -8.37206421 8.30221558 -7.8671875 7.109375 C-7.58858887 6.44260742 -7.30999023 5.77583984 -7.02294922 5.08886719 C-5.17362842 1.66851687 -3.92552003 0.40056327 0 0 Z " fill="#437ABF" transform="translate(535.0625,408.6875)"/>
<path d="M0 0 C3.91075925 1.98968453 5.57689098 3.36533646 8 7 C8 8.65 8 10.3 8 12 C-1.24 12 -10.48 12 -20 12 C-18.11015122 6.33045367 -17.25049054 4.71917922 -13 1 C-9.05570181 -0.9721491 -4.29883571 -0.44867961 0 0 Z " fill="#283846" transform="translate(516,620)"/>
<path d="M0 0 C4.47883666 2.1594391 6.91418379 4.48073155 9 9 C9 9.99 9 10.98 9 12 C-0.24 12 -9.48 12 -19 12 C-17.97538063 5.85228381 -17.73410998 4.66925112 -13.23046875 1.140625 C-8.94471143 -1.05104074 -4.65176543 -0.82089978 0 0 Z " fill="#283847" transform="translate(353,620)"/>
<path d="M0 0 C4.54231023 0.82686366 7.02399187 3.11815269 10.44921875 6.09375 C14.75788761 10.20430482 14.75788761 10.20430482 20.26171875 11.59375 C20.26171875 12.25375 20.26171875 12.91375 20.26171875 13.59375 C14.27246513 13.00140624 10.827095 9.19100139 6.39453125 5.4296875 C2.84405076 2.9122972 2.84405076 2.9122972 -3.73828125 4.59375 C-3.40828125 27.03375 -3.07828125 49.47375 -2.73828125 72.59375 C-0.75828125 72.59375 1.22171875 72.59375 3.26171875 72.59375 C3.92171875 70.94375 4.58171875 69.29375 5.26171875 67.59375 C5.92171875 67.59375 6.58171875 67.59375 7.26171875 67.59375 C5.12054228 73.68786765 5.12054228 73.68786765 2.26171875 75.59375 C-0.46511138 75.45740849 -2.1363627 75.01899419 -4.37026978 73.44078064 C-6.39341213 70.70922027 -6.11959519 68.53814233 -6.12646484 65.16625977 C-6.1317218 64.51875763 -6.13697876 63.87125549 -6.14239502 63.20413208 C-6.155596 61.06422786 -6.14685631 58.92506801 -6.13671875 56.78515625 C-6.13873972 55.29686846 -6.14165136 53.80858164 -6.14541626 52.32029724 C-6.14983992 49.20065892 -6.14340837 46.08127829 -6.12939453 42.96166992 C-6.11231716 38.96556572 -6.12213389 34.97006663 -6.14011192 30.97398472 C-6.15096148 27.90015621 -6.14749785 24.82647072 -6.13972855 21.75263786 C-6.13772899 20.27945827 -6.14017724 18.80626564 -6.14716721 17.33310127 C-6.15479967 15.27193029 -6.14315338 13.21173335 -6.12646484 11.15063477 C-6.12407806 9.97831802 -6.12169128 8.80600128 -6.11923218 7.59815979 C-5.56569796 3.23265365 -4.40031375 0.95413365 0 0 Z " fill="#3066C8" transform="translate(487.73828125,454.40625)"/>
<path d="M0 0 C3.75999106 0.93999776 5.2473603 2.51105689 7.5 5.625 C7.56641554 9.47710127 7.37229157 11.62348005 4.8125 14.5625 C1.76397123 15.96317538 -0.17926952 16.1092732 -3.5 15.625 C-6.55623277 13.53389337 -7.36463014 12.33193151 -8.0625 8.6875 C-7.19282262 3.95258981 -4.72210792 1.18052698 0 0 Z " fill="#385774" transform="translate(642.5,586.375)"/>
<path d="M0 0 C0.33 0 0.66 0 1 0 C1 1.65 1 3.3 1 5 C0.01 5.33 -0.98 5.66 -2 6 C-2.10868408 6.68070557 -2.21736816 7.36141113 -2.3293457 8.06274414 C-3.12142632 11.53180925 -4.37640845 14.71860741 -5.73046875 17.99609375 C-6.00337234 18.66608902 -6.27627594 19.33608429 -6.55744934 20.02638245 C-7.43000017 22.16513762 -8.30878623 24.30127069 -9.1875 26.4375 C-9.75884292 27.83773589 -10.32980969 29.23812532 -10.90039062 30.63867188 C-15.46411503 41.81009339 -15.46411503 41.81009339 -17.72900391 46.94580078 C-18.00408279 47.57253189 -18.27916168 48.199263 -18.56257629 48.84498596 C-19.31203682 50.5439869 -20.07037007 52.23906615 -20.8293457 53.93383789 C-21.99229119 56.97980918 -22.49537246 59.7915024 -23 63 C-24.5625 65.375 -24.5625 65.375 -26 67 C-25.8616788 59.68155106 -25.01899423 54.09923312 -21.45703125 47.68359375 C-16.88745826 39.26724887 -13.62246703 30.11053846 -10.21875 21.17578125 C-4.13007284 5.31009365 -4.13007284 5.31009365 0 0 Z " fill="#3993C9" transform="translate(538,413)"/>
<path d="M0 0 C2.95839355 -0.02689449 5.91654427 -0.04678741 8.875 -0.0625 C9.71675781 -0.07087891 10.55851563 -0.07925781 11.42578125 -0.08789062 C12.23144531 -0.09111328 13.03710938 -0.09433594 13.8671875 -0.09765625 C14.98262939 -0.10551147 14.98262939 -0.10551147 16.12060547 -0.11352539 C18 0 18 0 20 1 C20 9 20 9 19 12 C18.34 11.01 17.68 10.02 17 9 C14.94074861 8.27617533 14.94074861 8.27617533 13 8 C13 9.32 13 10.64 13 12 C12.34 12 11.68 12 11 12 C11 8.7 11 5.4 11 2 C9.35 2 7.7 2 6 2 C6 5.3 6 8.6 6 12 C5.34 12 4.68 12 4 12 C4 8.7 4 5.4 4 2 C2.68 2 1.36 2 0 2 C0 1.34 0 0.68 0 0 Z " fill="#5C758C" transform="translate(781,591)"/>
<path d="M0 0 C0.33 0 0.66 0 1 0 C1.09267747 9.18809939 1.16375324 18.37603791 1.20724869 27.56450272 C1.22812433 31.83109292 1.25644109 36.09736336 1.30175781 40.36376953 C1.3452171 44.48106784 1.36913728 48.59805857 1.37950897 52.71556854 C1.38690027 54.2864847 1.40133388 55.85738402 1.42292023 57.42816925 C1.45195682 59.62858969 1.45595612 61.82773913 1.45410156 64.02832031 C1.46298401 65.28074524 1.47186646 66.53317017 1.48101807 67.82354736 C0.91257061 71.57734902 0.00092421 72.74924218 -3 75 C-6.30207061 75.63197524 -7.59763834 75.25075639 -10.45703125 73.46875 C-11.23433594 72.8190625 -12.01164063 72.169375 -12.8125 71.5 C-13.60269531 70.8503125 -14.39289062 70.200625 -15.20703125 69.53125 C-16.09455078 68.77328125 -16.09455078 68.77328125 -17 68 C-16.01 67.505 -16.01 67.505 -15 67 C-14.31164062 67.52400391 -14.31164062 67.52400391 -13.609375 68.05859375 C-12.99578125 68.51363281 -12.3821875 68.96867187 -11.75 69.4375 C-11.14671875 69.88996094 -10.5434375 70.34242188 -9.921875 70.80859375 C-7.93707244 72.03900997 -6.28012345 72.56112668 -4 73 C-4 72.34 -4 71.68 -4 71 C-2.515 70.505 -2.515 70.505 -1 70 C-0.67 46.9 -0.34 23.8 0 0 Z " fill="#51AA9E" transform="translate(540,412)"/>
<path d="M0 0 C0.33 0 0.66 0 1 0 C1 22.11 1 44.22 1 67 C0.67 67 0.34 67 0 67 C-0.495 38.29 -0.495 38.29 -1 9 C-3.27261129 11.02108003 -3.27261129 11.02108003 -4.5 14.5625 C-6 18 -6 18 -8 19 C-4.58536585 7.27642276 -4.58536585 7.27642276 -3 4 C-2.34 3.67 -1.68 3.34 -1 3 C-0.67 2.01 -0.34 1.02 0 0 Z " fill="#44C3B0" transform="translate(539,415)"/>
<path d="M0 0 C9.57668161 -1.0735426 9.57668161 -1.0735426 13.06640625 1.55859375 C14.52961293 3.31091597 15.81955587 5.04753546 17 7 C14.76902409 5.93542643 13.00391143 5.0033899 11.125 3.375 C8.25422689 1.51744093 6.3507513 1.56294548 3 2 C0.61087635 5.58368547 0.72911866 7.22995899 0.68115234 11.4909668 C0.67110672 12.1448941 0.6610611 12.79882141 0.65071106 13.4725647 C0.61984986 15.63144054 0.60283619 17.79019221 0.5859375 19.94921875 C0.56722817 21.4470985 0.54765493 22.94496768 0.5272522 24.44282532 C0.47589999 28.3833697 0.43629095 32.32394827 0.39910889 36.26464844 C0.35908851 40.28654457 0.30798722 44.30829813 0.2578125 48.33007812 C0.16101669 56.21995473 0.07662374 64.10990183 0 72 C-0.33 72 -0.66 72 -1 72 C-1.02317215 63.20298831 -1.04093997 54.40598712 -1.05181217 45.60895157 C-1.05703032 41.52412081 -1.06410861 37.43931093 -1.07543945 33.35449219 C-1.08630624 29.41228785 -1.09228489 25.4701036 -1.09487724 21.52788544 C-1.09672464 20.0240014 -1.10033213 18.52011846 -1.10573006 17.01624298 C-1.11299078 14.90956752 -1.11398881 12.80297503 -1.11352539 10.69628906 C-1.115746 9.49715881 -1.11796661 8.29802856 -1.12025452 7.06256104 C-1.01988193 4.50633972 -0.75642501 2.42698555 0 0 Z " fill="#153361" transform="translate(482,454)"/>
<path d="M0 0 C0.33 0 0.66 0 1 0 C1.09267419 9.31848416 1.1637516 18.63680972 1.20724869 27.95565414 C1.22812503 32.28277614 1.25644312 36.60958288 1.30175781 40.93652344 C1.34521452 45.11217599 1.36913675 49.2875253 1.37950897 53.46338654 C1.38690072 55.0566307 1.40133521 56.64985824 1.42292023 58.24297333 C1.45195327 60.47452169 1.45595626 62.70481664 1.45410156 64.93652344 C1.46298401 66.20671326 1.47186646 67.47690308 1.48101807 68.7855835 C1 72 1 72 -0.80963135 74.41802979 C-3.9622022 76.69494019 -6.20224606 76.40690221 -10 76 C-12.375 75.25 -12.375 75.25 -14 74 C-14.75 71.875 -14.75 71.875 -15 70 C-14.113125 70.66 -13.22625 71.32 -12.3125 72 C-9.01547019 73.99065951 -7.72235631 74.70422957 -4 74 C-2.25005161 72.94472441 -2.25005161 72.94472441 -1 71 C-0.5238393 67.82910579 -0.5238393 67.82910579 -0.56762695 64.1418457 C-0.5574353 63.44890411 -0.54724365 62.75596252 -0.53674316 62.04202271 C-0.50656557 59.75319382 -0.49734037 57.4647831 -0.48828125 55.17578125 C-0.47143802 53.5882172 -0.45328826 52.00066652 -0.43388367 50.41313171 C-0.38633856 46.23583146 -0.35655858 42.05858539 -0.33044434 37.88110352 C-0.30066142 33.61789243 -0.25412336 29.35486813 -0.20898438 25.09179688 C-0.12290001 16.72795625 -0.05557778 8.3640987 0 0 Z " fill="#094340" transform="translate(541,412)"/>
<path d="M0 0 C0.33 0 0.66 0 1 0 C1.19531429 3.7850562 0.67048897 6.39802961 -0.8125 9.875 C-1.17859375 10.74511719 -1.5446875 11.61523438 -1.921875 12.51171875 C-2.27765625 13.33285156 -2.6334375 14.15398437 -3 15 C-3.40992188 15.96873047 -3.40992188 15.96873047 -3.828125 16.95703125 C-4.54312703 18.64184986 -5.27138718 20.32102263 -6 22 C-6.495 23.155 -6.99 24.31 -7.5 25.5 C-8.27244653 27.30237523 -9.04709222 29.10407596 -9.85546875 30.890625 C-11.14789451 33.77886285 -12 35.79700086 -12 39 C-9.5609294 41.20142332 -9.5609294 41.20142332 -7 43 C-7.33 43.66 -7.66 44.32 -8 45 C-10.31 43.02 -12.62 41.04 -15 39 C-14.33109788 34.82925603 -12.97770184 31.23397015 -11.34765625 27.34375 C-11.08746201 26.7189978 -10.82726776 26.09424561 -10.55918884 25.45056152 C-9.73126175 23.46521049 -8.89705224 21.48257396 -8.0625 19.5 C-7.50542911 18.16814863 -6.9487843 16.83611897 -6.39257812 15.50390625 C-5.36865169 13.05158321 -4.34178909 10.6005789 -3.31274414 8.15039062 C-2.18437679 5.44247686 -1.0808332 2.72716293 0 0 Z " fill="#3FB7C3" transform="translate(530,434)"/>
<path d="M0 0 C0.33 0 0.66 0 1 0 C0.59615805 5.92301527 -1.40721133 10.64502273 -3.84375 16.03515625 C-5.11234563 18.96556211 -5.11234563 18.96556211 -5.46875 22.12109375 C-6.03931887 25.21307358 -6.94170219 26.67322856 -9 29 C-8.83707577 20.37982712 -7.20027287 14.46287015 -3 7 C-1.94101437 4.68684315 -0.97138045 2.35176319 0 0 Z " fill="#3483CC" transform="translate(521,451)"/>
<path d="M0 0 C0.66 1.65 1.32 3.3 2 5 C1.01 4.34 0.02 3.68 -1 3 C-3.05709596 2.75944532 -3.05709596 2.75944532 -5.1875 2.875 C-6.445625 2.91625 -7.70375 2.9575 -9 3 C-9.28875 3.94875 -9.5775 4.8975 -9.875 5.875 C-11 9 -11 9 -13 11 C-12.71860476 7.34186183 -12.43656214 4.68103694 -10.4375 1.5625 C-6.85236684 -0.73566228 -4.20922245 -0.28061483 0 0 Z " fill="#1B395B" transform="translate(539,407)"/>
<path d="M0 0 C0.66 0 1.32 0 2 0 C0.50829734 4.9723422 -1.60457417 9.41845739 -4 14 C-9.875 10.25 -9.875 10.25 -11 8 C-6.25 9.875 -6.25 9.875 -4 11 C-3.69255859 9.93458984 -3.69255859 9.93458984 -3.37890625 8.84765625 C-3.10949219 7.92855469 -2.84007812 7.00945312 -2.5625 6.0625 C-2.29566406 5.14597656 -2.02882813 4.22945313 -1.75390625 3.28515625 C-1 1 -1 1 0 0 Z " fill="#183963" transform="translate(510,453)"/>
<path d="M0 0 C1.63166258 4.02941064 0.27379498 6.77730196 -1.25 10.6875 C-1.68828125 11.84636719 -2.1265625 13.00523437 -2.578125 14.19921875 C-4 17 -4 17 -7 18 C-5.06375702 11.79522136 -2.74390859 5.89174281 0 0 Z " fill="#163461" transform="translate(501,508)"/>
<path d="M0 0 C2.64525803 0.95523207 4.81123085 1.85699307 7.0625 3.5625 C9.07687729 5.05703799 10.55493989 5.56338212 13 6 C13 5.34 13 4.68 13 4 C14.32 3.67 15.64 3.34 17 3 C15.125 6.875 15.125 6.875 14 8 C10.80410869 8.39189686 9.32259632 8.19642988 6.54296875 6.50390625 C5.76566406 5.86324219 4.98835937 5.22257812 4.1875 4.5625 C3.39730469 3.92441406 2.60710938 3.28632813 1.79296875 2.62890625 C1.20128906 2.09136719 0.60960937 1.55382812 0 1 C0 0.67 0 0.34 0 0 Z " fill="#4DB5A7" transform="translate(523,479)"/>
<path d="M0 0 C0.6875 1.75 0.6875 1.75 1 4 C0.03126968 5.35622245 -0.97676564 6.68441297 -2 8 C-2.79982441 10.01180323 -3.49190593 12.03739876 -4.15625 14.09765625 C-5.1060675 16.23914292 -6.26348116 17.45160403 -8 19 C-4.58536585 7.27642276 -4.58536585 7.27642276 -3 4 C-2.34 3.67 -1.68 3.34 -1 3 C-0.67 2.01 -0.34 1.02 0 0 Z " fill="#42B7C2" transform="translate(539,415)"/>
<path d="M0 0 C0.66 0 1.32 0 2 0 C-0.14117647 6.09411765 -0.14117647 6.09411765 -3 8 C-5.5625 7.875 -5.5625 7.875 -8 7 C-8.66 6.01 -9.32 5.02 -10 4 C-7.36 4.33 -4.72 4.66 -2 5 C-1.34 3.35 -0.68 1.7 0 0 Z " fill="#3469C3" transform="translate(493,522)"/>
<path d="M0 0 C1.16161779 2.86578759 0.9946154 4.01630163 0.00390625 7.015625 C-0.70958984 8.61664063 -0.70958984 8.61664063 -1.4375 10.25 C-1.91058594 11.32765625 -2.38367188 12.4053125 -2.87109375 13.515625 C-3.24363281 14.33546875 -3.61617188 15.1553125 -4 16 C-4.66 16 -5.32 16 -6 16 C-4.25192871 10.53262809 -2.34205919 5.24175152 0 0 Z " fill="#183664" transform="translate(508,491)"/>
<path d="M0 0 C0.66 0.33 1.32 0.66 2 1 C-0.475 6.94 -0.475 6.94 -3 13 C-4.00573177 8.97707292 -4.07668895 8.3618129 -2.625 4.8125 C-2.34914063 4.11769531 -2.07328125 3.42289062 -1.7890625 2.70703125 C-1 1 -1 1 0 0 Z " fill="#3169CB" transform="translate(506,492)"/>
<path d="M0 0 C0.886875 0.66 1.77375 1.32 2.6875 2 C6.01428624 4.00862565 7.25120088 4.69056826 11 4 C13.28484306 2.60042803 13.28484306 2.60042803 15 1 C13.125 4.875 13.125 4.875 12 6 C4.17574692 6.44288225 4.17574692 6.44288225 1 4 C0.25 1.875 0.25 1.875 0 0 Z " fill="#14454B" transform="translate(526,482)"/>
<path d="M0 0 C0.8353125 0.7734375 0.8353125 0.7734375 1.6875 1.5625 C3.91108235 3.25919193 3.91108235 3.25919193 6.5625 2.8125 C9.21378289 2.04750731 9.21378289 2.04750731 12 0 C11.34 1.65 10.68 3.3 10 5 C7.36 5 4.72 5 2 5 C1.34 3.35 0.68 1.7 0 0 Z " fill="#1B365F" transform="translate(482,526)"/>
<path d="M0 0 C2.875 -0.125 2.875 -0.125 6 0 C6.66 0.66 7.32 1.32 8 2 C7.625 4.125 7.625 4.125 7 6 C6.67 5.01 6.34 4.02 6 3 C2.37114676 2.84850702 2.37114676 2.84850702 -1 4 C-0.67 2.68 -0.34 1.36 0 0 Z " fill="#4983C9" transform="translate(532,409)"/>
<path d="M0 0 C0.66 0 1.32 0 2 0 C2.33 0.99 2.66 1.98 3 3 C4.62332967 4.38576923 6.28724465 5.72641268 8 7 C7.67 7.66 7.34 8.32 7 9 C5.82460004 8.07347299 4.65989423 7.13336613 3.5 6.1875 C2.52546875 5.40439453 2.52546875 5.40439453 1.53125 4.60546875 C0 3 0 3 0 0 Z " fill="#47B1AD" transform="translate(515,470)"/>
<path d="M0 0 C1.65 0 3.3 0 5 0 C5 1.32 5 2.64 5 4 C3.35 4 1.7 4 0 4 C0 2.68 0 1.36 0 0 Z " fill="#233A51" transform="translate(794,593)"/>
<path d="M0 0 C0.33 0 0.66 0 1 0 C1.390625 5.95703125 1.390625 5.95703125 1 8 C-0.32 8.99 -1.64 9.98 -3 11 C-2.01 7.37 -1.02 3.74 0 0 Z " fill="#173761" transform="translate(512,480)"/>
<path d="M0 0 C0.66 0 1.32 0 2 0 C0.90931332 3.77545388 0.0916909 6.47043472 -3 9 C-2.30058404 5.85262818 -1.23921302 2.97411124 0 0 Z " fill="#193655" transform="translate(510,453)"/>
<path d="M0 0 C0.66 0.33 1.32 0.66 2 1 C1.2884375 1.6496875 1.2884375 1.6496875 0.5625 2.3125 C-1.23686957 4.02309613 -1.23686957 4.02309613 -2 7 C-2.99 6.67 -3.98 6.34 -5 6 C-5 5.34 -5 4.68 -5 4 C-3.37373596 2.61767557 -1.7074998 1.28062485 0 0 Z " fill="#304657" transform="translate(430,404)"/>
</svg>
